# xmcd
#
# Track frame offsets: 
#        183
#        11758
#        24098
#        36925
#        53983
#        70150
#        82030
#        97943
#        108605
#        118215
#        133203
#        142145
#        155985
#        168405
#        183010
#        202363
#        215153
#        231405
#        245350
#
# Disc length: 3418 seconds
#
# Revision: 1
# Processed by: cddbd v1.5.2PL0 Copyright (c) Steve Scherf et al.
# Submitted via: ExactAudioCopyFreeDBPlugin 1.0
#
DISCID=230d5813
DTITLE=Lynn Anderson - Country 7
DYEAR=1992
DGENRE=Country
TTITLE0=Listen To a Country Song
TTITLE1=Stand By Your Man
TTITLE2=I Fall To Pieces
TTITLE3=Blue Bayou
TTITLE4=Devil Went Down To Georgia
TTITLE5=Rodeo Cowboy
TTITLE6=You Needed Me
TTITLE7=Heartbreak Hotel
TTITLE8=Snowbird
TTITLE9=Faithless Love
TTITLE10=Rocky Top
TTITLE11=Paradise
TTITLE12=Ive never Loved Anyone More
TTITLE13=Gone At Last
TTITLE14=Love Has No Pride
TTITLE15=Top Of The World
TTITLE16=I Was Country When Country Wasnt Cool
TTITLE17=Two Doors Down
TTITLE18=Someday Soon
EXTD=YEAR: 1992
EXTT0=
EXTT1=
EXTT2=
EXTT3=
EXTT4=
EXTT5=
EXTT6=
EXTT7=
EXTT8=
EXTT9=
EXTT10=
EXTT11=
EXTT12=
EXTT13=
EXTT14=
EXTT15=
EXTT16=
EXTT17=
EXTT18=
PLAYORDER=
